<mxfile host="app.diagrams.net" agent="Mozilla/5.0 (Windows NT 10.0; Win64; x64) AppleWebKit/537.36 (KHTML, like Gecko) Chrome/134.0.0.0 Safari/537.36" version="26.2.8">
  <diagram name="第 1 页" id="SYRPOqo05eueqqduvmRC">
    <mxGraphModel dx="790" dy="519" grid="1" gridSize="10" guides="1" tooltips="1" connect="1" arrows="1" fold="1" page="1" pageScale="1" pageWidth="827" pageHeight="1169" math="0" shadow="0">
      <root>
        <mxCell id="0" />
        <mxCell id="1" parent="0" />
        <mxCell id="tOK2UJVwWMVrl7zuKe4F-32" value="" style="group" vertex="1" connectable="0" parent="1">
          <mxGeometry x="200" y="155" width="480" height="150" as="geometry" />
        </mxCell>
        <mxCell id="tOK2UJVwWMVrl7zuKe4F-23" style="edgeStyle=orthogonalEdgeStyle;rounded=0;orthogonalLoop=1;jettySize=auto;html=1;exitX=0;exitY=0.5;exitDx=0;exitDy=0;entryX=1;entryY=0.5;entryDx=0;entryDy=0;" edge="1" parent="tOK2UJVwWMVrl7zuKe4F-32" source="tOK2UJVwWMVrl7zuKe4F-1" target="tOK2UJVwWMVrl7zuKe4F-4">
          <mxGeometry relative="1" as="geometry">
            <Array as="points">
              <mxPoint x="110" y="75" />
              <mxPoint x="110" y="15" />
            </Array>
          </mxGeometry>
        </mxCell>
        <mxCell id="tOK2UJVwWMVrl7zuKe4F-24" style="edgeStyle=orthogonalEdgeStyle;rounded=0;orthogonalLoop=1;jettySize=auto;html=1;exitX=0;exitY=0.5;exitDx=0;exitDy=0;entryX=1;entryY=0.5;entryDx=0;entryDy=0;" edge="1" parent="tOK2UJVwWMVrl7zuKe4F-32" source="tOK2UJVwWMVrl7zuKe4F-1" target="tOK2UJVwWMVrl7zuKe4F-5">
          <mxGeometry relative="1" as="geometry">
            <Array as="points">
              <mxPoint x="110" y="75" />
              <mxPoint x="110" y="55" />
            </Array>
          </mxGeometry>
        </mxCell>
        <mxCell id="tOK2UJVwWMVrl7zuKe4F-25" style="edgeStyle=orthogonalEdgeStyle;rounded=0;orthogonalLoop=1;jettySize=auto;html=1;exitX=0;exitY=0.5;exitDx=0;exitDy=0;entryX=1;entryY=0.5;entryDx=0;entryDy=0;" edge="1" parent="tOK2UJVwWMVrl7zuKe4F-32" source="tOK2UJVwWMVrl7zuKe4F-1" target="tOK2UJVwWMVrl7zuKe4F-6">
          <mxGeometry relative="1" as="geometry">
            <Array as="points">
              <mxPoint x="110" y="75" />
              <mxPoint x="110" y="95" />
            </Array>
          </mxGeometry>
        </mxCell>
        <mxCell id="tOK2UJVwWMVrl7zuKe4F-26" style="edgeStyle=orthogonalEdgeStyle;rounded=0;orthogonalLoop=1;jettySize=auto;html=1;exitX=0;exitY=0.5;exitDx=0;exitDy=0;entryX=1;entryY=0.5;entryDx=0;entryDy=0;" edge="1" parent="tOK2UJVwWMVrl7zuKe4F-32" source="tOK2UJVwWMVrl7zuKe4F-1" target="tOK2UJVwWMVrl7zuKe4F-8">
          <mxGeometry relative="1" as="geometry">
            <Array as="points">
              <mxPoint x="110" y="75" />
              <mxPoint x="110" y="135" />
            </Array>
          </mxGeometry>
        </mxCell>
        <mxCell id="tOK2UJVwWMVrl7zuKe4F-27" value="接口" style="edgeLabel;html=1;align=center;verticalAlign=middle;resizable=0;points=[];" vertex="1" connectable="0" parent="tOK2UJVwWMVrl7zuKe4F-26">
          <mxGeometry x="-0.5937" y="-4" relative="1" as="geometry">
            <mxPoint y="-11" as="offset" />
          </mxGeometry>
        </mxCell>
        <mxCell id="tOK2UJVwWMVrl7zuKe4F-28" style="edgeStyle=orthogonalEdgeStyle;rounded=0;orthogonalLoop=1;jettySize=auto;html=1;exitX=1;exitY=0.5;exitDx=0;exitDy=0;entryX=0;entryY=0.5;entryDx=0;entryDy=0;" edge="1" parent="tOK2UJVwWMVrl7zuKe4F-32" source="tOK2UJVwWMVrl7zuKe4F-1" target="tOK2UJVwWMVrl7zuKe4F-9">
          <mxGeometry relative="1" as="geometry">
            <Array as="points">
              <mxPoint x="370" y="75" />
              <mxPoint x="370" y="35" />
            </Array>
          </mxGeometry>
        </mxCell>
        <mxCell id="tOK2UJVwWMVrl7zuKe4F-29" style="edgeStyle=orthogonalEdgeStyle;rounded=0;orthogonalLoop=1;jettySize=auto;html=1;exitX=1;exitY=0.5;exitDx=0;exitDy=0;entryX=0;entryY=0.5;entryDx=0;entryDy=0;" edge="1" parent="tOK2UJVwWMVrl7zuKe4F-32" source="tOK2UJVwWMVrl7zuKe4F-1" target="tOK2UJVwWMVrl7zuKe4F-10">
          <mxGeometry relative="1" as="geometry" />
        </mxCell>
        <mxCell id="tOK2UJVwWMVrl7zuKe4F-30" style="edgeStyle=orthogonalEdgeStyle;rounded=0;orthogonalLoop=1;jettySize=auto;html=1;exitX=1;exitY=0.5;exitDx=0;exitDy=0;entryX=0;entryY=0.5;entryDx=0;entryDy=0;" edge="1" parent="tOK2UJVwWMVrl7zuKe4F-32" source="tOK2UJVwWMVrl7zuKe4F-1" target="tOK2UJVwWMVrl7zuKe4F-11">
          <mxGeometry relative="1" as="geometry">
            <Array as="points">
              <mxPoint x="370" y="75" />
              <mxPoint x="370" y="115" />
            </Array>
          </mxGeometry>
        </mxCell>
        <mxCell id="tOK2UJVwWMVrl7zuKe4F-31" value="WS63&lt;div&gt;芯片&lt;/div&gt;" style="edgeLabel;html=1;align=center;verticalAlign=middle;resizable=0;points=[];" vertex="1" connectable="0" parent="tOK2UJVwWMVrl7zuKe4F-30">
          <mxGeometry x="-0.7104" y="2" relative="1" as="geometry">
            <mxPoint x="3" y="-13" as="offset" />
          </mxGeometry>
        </mxCell>
        <mxCell id="tOK2UJVwWMVrl7zuKe4F-1" value="&lt;b&gt;&lt;font style=&quot;font-size: 17px;&quot;&gt;WS63芯片&lt;/font&gt;&lt;/b&gt;&lt;div&gt;240MHz&lt;/div&gt;&lt;div&gt;SRAM 606KB、ROM 300KB、4MB Flash&amp;nbsp;&lt;/div&gt;" style="rounded=1;whiteSpace=wrap;html=1;fillColor=#d5e8d4;strokeColor=#82b366;align=left;" vertex="1" parent="tOK2UJVwWMVrl7zuKe4F-32">
          <mxGeometry x="160" y="35" width="160" height="80" as="geometry" />
        </mxCell>
        <mxCell id="tOK2UJVwWMVrl7zuKe4F-4" value="2*自定义GPIO" style="rounded=0;whiteSpace=wrap;html=1;fillColor=#dae8fc;strokeColor=#6c8ebf;" vertex="1" parent="tOK2UJVwWMVrl7zuKe4F-32">
          <mxGeometry width="80" height="30" as="geometry" />
        </mxCell>
        <mxCell id="tOK2UJVwWMVrl7zuKe4F-5" value="UART&lt;br&gt;（烧录调试）" style="rounded=0;whiteSpace=wrap;html=1;fillColor=#dae8fc;strokeColor=#6c8ebf;" vertex="1" parent="tOK2UJVwWMVrl7zuKe4F-32">
          <mxGeometry y="40" width="80" height="30" as="geometry" />
        </mxCell>
        <mxCell id="tOK2UJVwWMVrl7zuKe4F-6" value="LED&lt;br&gt;指示灯" style="rounded=0;whiteSpace=wrap;html=1;fillColor=#dae8fc;strokeColor=#6c8ebf;" vertex="1" parent="tOK2UJVwWMVrl7zuKe4F-32">
          <mxGeometry y="80" width="80" height="30" as="geometry" />
        </mxCell>
        <mxCell id="tOK2UJVwWMVrl7zuKe4F-8" value="供电&lt;div&gt;排针&lt;/div&gt;" style="rounded=0;whiteSpace=wrap;html=1;fillColor=#dae8fc;strokeColor=#6c8ebf;" vertex="1" parent="tOK2UJVwWMVrl7zuKe4F-32">
          <mxGeometry y="120" width="80" height="30" as="geometry" />
        </mxCell>
        <mxCell id="tOK2UJVwWMVrl7zuKe4F-9" value="Wi-Fi" style="rounded=0;whiteSpace=wrap;html=1;fillColor=#e1d5e7;strokeColor=#9673a6;" vertex="1" parent="tOK2UJVwWMVrl7zuKe4F-32">
          <mxGeometry x="400" y="20" width="80" height="30" as="geometry" />
        </mxCell>
        <mxCell id="tOK2UJVwWMVrl7zuKe4F-10" value="BLE" style="rounded=0;whiteSpace=wrap;html=1;fillColor=#e1d5e7;strokeColor=#9673a6;" vertex="1" parent="tOK2UJVwWMVrl7zuKe4F-32">
          <mxGeometry x="400" y="60" width="80" height="30" as="geometry" />
        </mxCell>
        <mxCell id="tOK2UJVwWMVrl7zuKe4F-11" value="SLE" style="rounded=0;whiteSpace=wrap;html=1;fillColor=#e1d5e7;strokeColor=#9673a6;" vertex="1" parent="tOK2UJVwWMVrl7zuKe4F-32">
          <mxGeometry x="400" y="100" width="80" height="30" as="geometry" />
        </mxCell>
        <mxCell id="tOK2UJVwWMVrl7zuKe4F-41" style="edgeStyle=orthogonalEdgeStyle;rounded=0;orthogonalLoop=1;jettySize=auto;html=1;exitX=1;exitY=0.25;exitDx=0;exitDy=0;" edge="1" parent="1" source="tOK2UJVwWMVrl7zuKe4F-33" target="tOK2UJVwWMVrl7zuKe4F-40">
          <mxGeometry relative="1" as="geometry" />
        </mxCell>
        <mxCell id="tOK2UJVwWMVrl7zuKe4F-42" value="CH340" style="edgeLabel;html=1;align=center;verticalAlign=middle;resizable=0;points=[];" vertex="1" connectable="0" parent="tOK2UJVwWMVrl7zuKe4F-41">
          <mxGeometry x="-0.1669" relative="1" as="geometry">
            <mxPoint x="-19" y="-15" as="offset" />
          </mxGeometry>
        </mxCell>
        <mxCell id="tOK2UJVwWMVrl7zuKe4F-44" style="edgeStyle=orthogonalEdgeStyle;rounded=0;orthogonalLoop=1;jettySize=auto;html=1;exitX=1;exitY=0.75;exitDx=0;exitDy=0;entryX=0;entryY=0.5;entryDx=0;entryDy=0;" edge="1" parent="1" source="tOK2UJVwWMVrl7zuKe4F-33" target="tOK2UJVwWMVrl7zuKe4F-43">
          <mxGeometry relative="1" as="geometry" />
        </mxCell>
        <mxCell id="tOK2UJVwWMVrl7zuKe4F-33" value="&lt;div&gt;CH340&lt;/div&gt;下载器" style="rounded=1;whiteSpace=wrap;html=1;fillColor=#d5e8d4;strokeColor=#82b366;" vertex="1" parent="1">
          <mxGeometry x="370" y="370" width="120" height="60" as="geometry" />
        </mxCell>
        <mxCell id="tOK2UJVwWMVrl7zuKe4F-38" style="edgeStyle=orthogonalEdgeStyle;rounded=0;orthogonalLoop=1;jettySize=auto;html=1;exitX=1;exitY=0.5;exitDx=0;exitDy=0;entryX=0;entryY=0.5;entryDx=0;entryDy=0;" edge="1" parent="1" source="tOK2UJVwWMVrl7zuKe4F-36" target="tOK2UJVwWMVrl7zuKe4F-33">
          <mxGeometry relative="1" as="geometry" />
        </mxCell>
        <mxCell id="tOK2UJVwWMVrl7zuKe4F-39" value="供电&lt;div&gt;烧录&lt;/div&gt;" style="edgeLabel;html=1;align=center;verticalAlign=middle;resizable=0;points=[];" vertex="1" connectable="0" parent="tOK2UJVwWMVrl7zuKe4F-38">
          <mxGeometry x="-0.0428" y="-2" relative="1" as="geometry">
            <mxPoint as="offset" />
          </mxGeometry>
        </mxCell>
        <mxCell id="tOK2UJVwWMVrl7zuKe4F-36" value="USB-A" style="rounded=0;whiteSpace=wrap;html=1;fillColor=#f8cecc;strokeColor=#b85450;" vertex="1" parent="1">
          <mxGeometry x="240" y="380" width="80" height="40" as="geometry" />
        </mxCell>
        <mxCell id="tOK2UJVwWMVrl7zuKe4F-40" value="烧录" style="whiteSpace=wrap;html=1;fillColor=#fff2cc;strokeColor=#d6b656;" vertex="1" parent="1">
          <mxGeometry x="570" y="350" width="80" height="40" as="geometry" />
        </mxCell>
        <mxCell id="tOK2UJVwWMVrl7zuKe4F-46" value="" style="edgeStyle=orthogonalEdgeStyle;rounded=0;orthogonalLoop=1;jettySize=auto;html=1;" edge="1" parent="1" source="tOK2UJVwWMVrl7zuKe4F-43" target="tOK2UJVwWMVrl7zuKe4F-45">
          <mxGeometry relative="1" as="geometry" />
        </mxCell>
        <mxCell id="tOK2UJVwWMVrl7zuKe4F-51" style="edgeStyle=orthogonalEdgeStyle;rounded=0;orthogonalLoop=1;jettySize=auto;html=1;exitX=1;exitY=0.5;exitDx=0;exitDy=0;entryX=0;entryY=0.5;entryDx=0;entryDy=0;" edge="1" parent="1" source="tOK2UJVwWMVrl7zuKe4F-43" target="tOK2UJVwWMVrl7zuKe4F-47">
          <mxGeometry relative="1" as="geometry" />
        </mxCell>
        <mxCell id="tOK2UJVwWMVrl7zuKe4F-52" style="edgeStyle=orthogonalEdgeStyle;rounded=0;orthogonalLoop=1;jettySize=auto;html=1;exitX=1;exitY=0.5;exitDx=0;exitDy=0;entryX=0;entryY=0.5;entryDx=0;entryDy=0;" edge="1" parent="1" source="tOK2UJVwWMVrl7zuKe4F-43" target="tOK2UJVwWMVrl7zuKe4F-49">
          <mxGeometry relative="1" as="geometry" />
        </mxCell>
        <mxCell id="tOK2UJVwWMVrl7zuKe4F-43" value="指示灯" style="rounded=0;whiteSpace=wrap;html=1;fillColor=#fff2cc;strokeColor=#d6b656;" vertex="1" parent="1">
          <mxGeometry x="570" y="410" width="80" height="40" as="geometry" />
        </mxCell>
        <mxCell id="tOK2UJVwWMVrl7zuKe4F-45" value="RX" style="whiteSpace=wrap;html=1;rounded=0;fillColor=#ffe6cc;strokeColor=#d79b00;" vertex="1" parent="1">
          <mxGeometry x="690" y="390" width="60" height="20" as="geometry" />
        </mxCell>
        <mxCell id="tOK2UJVwWMVrl7zuKe4F-47" value="TX" style="whiteSpace=wrap;html=1;rounded=0;fillColor=#ffe6cc;strokeColor=#d79b00;" vertex="1" parent="1">
          <mxGeometry x="690" y="420" width="60" height="20" as="geometry" />
        </mxCell>
        <mxCell id="tOK2UJVwWMVrl7zuKe4F-49" value="电源" style="whiteSpace=wrap;html=1;rounded=0;fillColor=#ffe6cc;strokeColor=#d79b00;" vertex="1" parent="1">
          <mxGeometry x="690" y="450" width="60" height="20" as="geometry" />
        </mxCell>
        <mxCell id="tOK2UJVwWMVrl7zuKe4F-56" style="edgeStyle=orthogonalEdgeStyle;rounded=0;orthogonalLoop=1;jettySize=auto;html=1;exitX=1;exitY=0.5;exitDx=0;exitDy=0;entryX=0;entryY=0.5;entryDx=0;entryDy=0;" edge="1" parent="1" source="tOK2UJVwWMVrl7zuKe4F-53" target="tOK2UJVwWMVrl7zuKe4F-54">
          <mxGeometry relative="1" as="geometry">
            <Array as="points">
              <mxPoint x="560" y="560" />
              <mxPoint x="560" y="535" />
            </Array>
          </mxGeometry>
        </mxCell>
        <mxCell id="tOK2UJVwWMVrl7zuKe4F-58" value="BS21E&lt;div&gt;芯片&lt;/div&gt;" style="edgeLabel;html=1;align=center;verticalAlign=middle;resizable=0;points=[];" vertex="1" connectable="0" parent="tOK2UJVwWMVrl7zuKe4F-56">
          <mxGeometry x="-0.5784" y="7" relative="1" as="geometry">
            <mxPoint y="7" as="offset" />
          </mxGeometry>
        </mxCell>
        <mxCell id="tOK2UJVwWMVrl7zuKe4F-57" style="edgeStyle=orthogonalEdgeStyle;rounded=0;orthogonalLoop=1;jettySize=auto;html=1;exitX=1;exitY=0.5;exitDx=0;exitDy=0;entryX=0;entryY=0.5;entryDx=0;entryDy=0;" edge="1" parent="1" source="tOK2UJVwWMVrl7zuKe4F-53" target="tOK2UJVwWMVrl7zuKe4F-55">
          <mxGeometry relative="1" as="geometry">
            <Array as="points">
              <mxPoint x="560" y="560" />
              <mxPoint x="560" y="585" />
            </Array>
          </mxGeometry>
        </mxCell>
        <mxCell id="tOK2UJVwWMVrl7zuKe4F-66" style="edgeStyle=orthogonalEdgeStyle;rounded=0;orthogonalLoop=1;jettySize=auto;html=1;exitX=0.5;exitY=1;exitDx=0;exitDy=0;entryX=0;entryY=0.5;entryDx=0;entryDy=0;" edge="1" parent="1" source="tOK2UJVwWMVrl7zuKe4F-53" target="tOK2UJVwWMVrl7zuKe4F-62">
          <mxGeometry relative="1" as="geometry" />
        </mxCell>
        <mxCell id="tOK2UJVwWMVrl7zuKe4F-71" style="edgeStyle=orthogonalEdgeStyle;rounded=0;orthogonalLoop=1;jettySize=auto;html=1;exitX=0;exitY=0.5;exitDx=0;exitDy=0;entryX=1;entryY=0.5;entryDx=0;entryDy=0;" edge="1" parent="1" source="tOK2UJVwWMVrl7zuKe4F-53" target="tOK2UJVwWMVrl7zuKe4F-67">
          <mxGeometry relative="1" as="geometry" />
        </mxCell>
        <mxCell id="tOK2UJVwWMVrl7zuKe4F-75" value="可选" style="edgeLabel;html=1;align=center;verticalAlign=middle;resizable=0;points=[];" vertex="1" connectable="0" parent="tOK2UJVwWMVrl7zuKe4F-71">
          <mxGeometry x="0.7464" y="1" relative="1" as="geometry">
            <mxPoint x="6" y="-16" as="offset" />
          </mxGeometry>
        </mxCell>
        <mxCell id="tOK2UJVwWMVrl7zuKe4F-72" style="edgeStyle=orthogonalEdgeStyle;rounded=0;orthogonalLoop=1;jettySize=auto;html=1;exitX=0;exitY=0.5;exitDx=0;exitDy=0;entryX=1;entryY=0.5;entryDx=0;entryDy=0;" edge="1" parent="1" source="tOK2UJVwWMVrl7zuKe4F-53" target="tOK2UJVwWMVrl7zuKe4F-68">
          <mxGeometry relative="1" as="geometry" />
        </mxCell>
        <mxCell id="tOK2UJVwWMVrl7zuKe4F-73" style="edgeStyle=orthogonalEdgeStyle;rounded=0;orthogonalLoop=1;jettySize=auto;html=1;exitX=0;exitY=0.5;exitDx=0;exitDy=0;entryX=1;entryY=0.5;entryDx=0;entryDy=0;" edge="1" parent="1" source="tOK2UJVwWMVrl7zuKe4F-53" target="tOK2UJVwWMVrl7zuKe4F-69">
          <mxGeometry relative="1" as="geometry" />
        </mxCell>
        <mxCell id="tOK2UJVwWMVrl7zuKe4F-74" style="edgeStyle=orthogonalEdgeStyle;rounded=0;orthogonalLoop=1;jettySize=auto;html=1;exitX=0;exitY=0.5;exitDx=0;exitDy=0;entryX=1;entryY=0.5;entryDx=0;entryDy=0;" edge="1" parent="1" source="tOK2UJVwWMVrl7zuKe4F-53" target="tOK2UJVwWMVrl7zuKe4F-70">
          <mxGeometry relative="1" as="geometry" />
        </mxCell>
        <mxCell id="tOK2UJVwWMVrl7zuKe4F-53" value="&lt;div&gt;&lt;b&gt;&lt;font style=&quot;font-size: 14px;&quot;&gt;BS21E芯片&lt;/font&gt;&lt;/b&gt;&lt;/div&gt;&lt;div&gt;&lt;div&gt;最大主频64MHz&lt;/div&gt;&lt;div&gt;SRAM 160KB，Flash 1MB&lt;/div&gt;&lt;/div&gt;" style="rounded=1;whiteSpace=wrap;html=1;fillColor=#d5e8d4;strokeColor=#82b366;align=left;" vertex="1" parent="1">
          <mxGeometry x="360" y="520" width="160" height="80" as="geometry" />
        </mxCell>
        <mxCell id="tOK2UJVwWMVrl7zuKe4F-54" value="BLE" style="rounded=0;whiteSpace=wrap;html=1;fillColor=#e1d5e7;strokeColor=#9673a6;" vertex="1" parent="1">
          <mxGeometry x="580" y="520" width="80" height="30" as="geometry" />
        </mxCell>
        <mxCell id="tOK2UJVwWMVrl7zuKe4F-55" value="SLE" style="rounded=0;whiteSpace=wrap;html=1;fillColor=#e1d5e7;strokeColor=#9673a6;" vertex="1" parent="1">
          <mxGeometry x="580" y="570" width="80" height="30" as="geometry" />
        </mxCell>
        <mxCell id="tOK2UJVwWMVrl7zuKe4F-60" style="edgeStyle=orthogonalEdgeStyle;rounded=0;orthogonalLoop=1;jettySize=auto;html=1;exitX=1;exitY=0.5;exitDx=0;exitDy=0;entryX=0;entryY=0.5;entryDx=0;entryDy=0;" edge="1" parent="1" source="tOK2UJVwWMVrl7zuKe4F-62" target="tOK2UJVwWMVrl7zuKe4F-64">
          <mxGeometry relative="1" as="geometry" />
        </mxCell>
        <mxCell id="tOK2UJVwWMVrl7zuKe4F-61" style="edgeStyle=orthogonalEdgeStyle;rounded=0;orthogonalLoop=1;jettySize=auto;html=1;exitX=1;exitY=0.5;exitDx=0;exitDy=0;entryX=0;entryY=0.5;entryDx=0;entryDy=0;" edge="1" parent="1" source="tOK2UJVwWMVrl7zuKe4F-62" target="tOK2UJVwWMVrl7zuKe4F-65">
          <mxGeometry relative="1" as="geometry" />
        </mxCell>
        <mxCell id="tOK2UJVwWMVrl7zuKe4F-62" value="指示灯" style="rounded=0;whiteSpace=wrap;html=1;fillColor=#fff2cc;strokeColor=#d6b656;" vertex="1" parent="1">
          <mxGeometry x="520" y="645" width="80" height="40" as="geometry" />
        </mxCell>
        <mxCell id="tOK2UJVwWMVrl7zuKe4F-64" value="TX" style="whiteSpace=wrap;html=1;rounded=0;fillColor=#ffe6cc;strokeColor=#d79b00;" vertex="1" parent="1">
          <mxGeometry x="640" y="640" width="60" height="20" as="geometry" />
        </mxCell>
        <mxCell id="tOK2UJVwWMVrl7zuKe4F-65" value="电源" style="whiteSpace=wrap;html=1;rounded=0;fillColor=#ffe6cc;strokeColor=#d79b00;" vertex="1" parent="1">
          <mxGeometry x="640" y="670" width="60" height="20" as="geometry" />
        </mxCell>
        <mxCell id="tOK2UJVwWMVrl7zuKe4F-67" value="2*自定义GPIO" style="rounded=0;whiteSpace=wrap;html=1;fillColor=#f8cecc;strokeColor=#b85450;" vertex="1" parent="1">
          <mxGeometry x="220" y="490" width="80" height="30" as="geometry" />
        </mxCell>
        <mxCell id="tOK2UJVwWMVrl7zuKe4F-68" value="UART&lt;br&gt;（烧录调试）" style="rounded=0;whiteSpace=wrap;html=1;fillColor=#dae8fc;strokeColor=#6c8ebf;" vertex="1" parent="1">
          <mxGeometry x="220" y="530" width="80" height="30" as="geometry" />
        </mxCell>
        <mxCell id="tOK2UJVwWMVrl7zuKe4F-69" value="LED&lt;br&gt;指示灯" style="rounded=0;whiteSpace=wrap;html=1;fillColor=#dae8fc;strokeColor=#6c8ebf;" vertex="1" parent="1">
          <mxGeometry x="220" y="570" width="80" height="30" as="geometry" />
        </mxCell>
        <mxCell id="tOK2UJVwWMVrl7zuKe4F-70" value="供电&lt;div&gt;排针&lt;/div&gt;" style="rounded=0;whiteSpace=wrap;html=1;fillColor=#dae8fc;strokeColor=#6c8ebf;" vertex="1" parent="1">
          <mxGeometry x="220" y="610" width="80" height="30" as="geometry" />
        </mxCell>
      </root>
    </mxGraphModel>
  </diagram>
</mxfile>
